<svg width="66" height="66" viewBox="0 0 66 66" fill="none" xmlns="http://www.w3.org/2000/svg">
<path d="M22.0065 33.5972C21.7303 33.5972 21.5065 33.821 21.5065 34.0972C21.5065 34.3733 21.7303 34.5972 22.0065 34.5972L22.0065 33.5972ZM42.36 34.4508C42.5553 34.2556 42.5553 33.939 42.36 33.7437L39.1781 30.5617C38.9828 30.3665 38.6662 30.3665 38.471 30.5617C38.2757 30.757 38.2757 31.0736 38.4709 31.2688L41.2994 34.0973L38.4709 36.9257C38.2757 37.1209 38.2757 37.4375 38.4709 37.6328C38.6662 37.828 38.9828 37.828 39.178 37.6328L42.36 34.4508ZM22.0065 34.5972L42.0065 34.5973L42.0065 33.5973L22.0065 33.5972L22.0065 34.5972Z" fill="black"/>
<circle cx="33" cy="33" r="32.5" stroke="#1E1E1E"/>
</svg>
