<svg width="42" height="42" viewBox="0 0 42 42" fill="none" xmlns="http://www.w3.org/2000/svg">
<path d="M28 21.5C28.2761 21.5 28.5 21.2761 28.5 21C28.5 20.7239 28.2761 20.5 28 20.5L28 21.5ZM13.6464 20.6463C13.4512 20.8416 13.4512 21.1582 13.6464 21.3535L16.8284 24.5355C17.0237 24.7307 17.3402 24.7307 17.5355 24.5355C17.7308 24.3402 17.7308 24.0236 17.5355 23.8284L14.7071 20.9999L17.5356 18.1715C17.7308 17.9762 17.7308 17.6597 17.5356 17.4644C17.3403 17.2691 17.0237 17.2691 16.8285 17.4644L13.6464 20.6463ZM28 20.5L14 20.4999L14 21.4999L28 21.5L28 20.5Z" fill="black"/>
</svg>
