<svg width="23" height="22" viewBox="0 0 23 22" fill="none" xmlns="http://www.w3.org/2000/svg">
<path fill-rule="evenodd" clip-rule="evenodd" d="M18.8848 1.28238C19.7181 2.1157 20.0116 3.28357 19.7659 4.35295C21.4315 4.5178 22.7326 5.92292 22.7326 7.63192C22.7326 8.58517 22.3278 9.44389 21.6807 10.0456C21.7187 10.6482 21.7187 11.2062 21.7187 12.3107V12.3664C21.7187 13.5806 21.7187 14.5292 21.6688 15.2945C21.6182 16.0718 21.5138 16.714 21.2795 17.3066C20.6937 18.7884 19.5653 19.9766 18.1315 20.5988C17.5542 20.8493 16.93 20.96 16.1821 21.0135C15.448 21.0659 14.5397 21.0659 13.3837 21.0659H10.2829C9.12687 21.0659 8.21855 21.0659 7.48444 21.0135C6.73652 20.96 6.11229 20.8493 5.53501 20.5988C4.10119 19.9766 2.97285 18.7884 2.387 17.3066C2.15266 16.714 2.04831 16.0718 1.99769 15.2945C1.94784 14.5291 1.94785 13.5807 1.94785 12.3664V12.3393C1.94785 11.857 1.93824 11.4684 1.92983 11.1284C1.91927 10.7011 1.91061 10.3507 1.92531 9.98787C1.31361 9.38963 0.93396 8.55511 0.93396 7.63192C0.93396 5.8698 2.31712 4.43073 4.05697 4.3412C3.81611 3.27502 4.1105 2.11266 4.94076 1.2824C6.22759 -0.00443349 8.31396 -0.00443349 9.60079 1.2824L11.7516 3.43318C11.8077 3.48935 11.8615 3.54708 11.9128 3.60623C11.9641 3.54707 12.0178 3.48934 12.074 3.43317L14.2248 1.28238C15.5116 -0.00444703 17.598 -0.00444703 18.8848 1.28238ZM15.3002 2.35777C15.9931 1.66487 17.1165 1.66487 17.8094 2.35777C18.3442 2.89258 18.4665 3.68489 18.1752 4.33678H13.3212L15.3002 2.35777ZM8.5254 2.35779L10.5044 4.33678H5.65032C5.35905 3.68489 5.48135 2.89259 6.01615 2.35779C6.70906 1.66488 7.83249 1.66488 8.5254 2.35779ZM2.45479 7.63192C2.45479 6.65199 3.24917 5.85761 4.2291 5.85761H11.0728V9.40622H4.2291C3.24917 9.40622 2.45479 8.61184 2.45479 7.63192ZM12.5937 19.2916L12.5937 10.9271H19.4374C19.6965 10.9271 19.9486 10.8972 20.1904 10.8406C20.1977 11.2146 20.1978 11.67 20.1978 12.3393C20.1978 13.5865 20.1975 14.4855 20.1512 15.1957C20.1054 15.8997 20.0168 16.3642 19.8652 16.7474C19.422 17.8683 18.5766 18.7478 17.5261 19.2037C17.1718 19.3574 16.7397 19.4489 16.0736 19.4965C15.4001 19.5446 14.546 19.5451 13.3541 19.5451H12.5504C12.5784 19.4658 12.5937 19.3805 12.5937 19.2916ZM11.0728 19.2916L11.0728 10.9271H4.2291C3.95868 10.9271 3.69587 10.8945 3.44438 10.833L3.44813 10.9734C3.45725 11.3104 3.46868 11.7324 3.46868 12.3393C3.46868 13.5865 3.46906 14.4855 3.51531 15.1957C3.56116 15.8997 3.64975 16.3642 3.8013 16.7474C4.24448 17.8683 5.08993 18.7478 6.14042 19.2037C6.49476 19.3574 6.92685 19.4489 7.59287 19.4965C8.26644 19.5446 9.1205 19.5451 10.3124 19.5451H11.1161C11.0881 19.4658 11.0728 19.3805 11.0728 19.2916ZM21.2117 7.63192C21.2117 6.65199 20.4173 5.85761 19.4374 5.85761H12.5937V9.40622H19.4374C20.4173 9.40622 21.2117 8.61184 21.2117 7.63192Z" fill="#1E1E1E"/>
</svg>
