<svg width="4" height="8" viewBox="0 0 4 8" fill="none" xmlns="http://www.w3.org/2000/svg">
<path d="M0.0744186 0.474028C-0.0248062 0.573253 -0.0248062 0.734494 0.0744186 0.833718L3.24341 3.99651L0.0744186 7.1655C-0.0248062 7.26473 -0.0248062 7.42597 0.0744186 7.52519C0.173643 7.62442 0.334884 7.62442 0.434109 7.52519L3.77674 4.18256C3.82636 4.13294 3.85116 4.07093 3.85116 4.00271C3.85116 3.94069 3.82636 3.87248 3.77674 3.82287L0.434109 0.48023C0.334884 0.374804 0.173643 0.374804 0.0744186 0.474028Z" fill="#1E1E1E"/>
<path d="M0.0744186 0.474028C-0.0248062 0.573253 -0.0248062 0.734494 0.0744186 0.833718L3.24341 3.99651L0.0744186 7.1655C-0.0248062 7.26473 -0.0248062 7.42597 0.0744186 7.52519C0.173643 7.62442 0.334884 7.62442 0.434109 7.52519L3.77674 4.18256C3.82636 4.13294 3.85116 4.07093 3.85116 4.00271C3.85116 3.94069 3.82636 3.87248 3.77674 3.82287L0.434109 0.48023C0.334884 0.374804 0.173643 0.374804 0.0744186 0.474028Z" fill="#787878"/>
</svg>
