<svg width="21" height="21" viewBox="0 0 21 21" fill="none" xmlns="http://www.w3.org/2000/svg">
<path fill-rule="evenodd" clip-rule="evenodd" d="M10.7917 0.714233C8.1881 0.714233 6.03826 2.65068 5.71057 5.15868L5.12009 5.15868C4.23274 5.15865 3.49689 5.15863 2.91939 5.23911C2.31227 5.32372 1.76674 5.51054 1.35187 5.97287C0.93699 6.4352 0.811074 6.99662 0.793808 7.60781C0.777385 8.18918 0.858668 8.91864 0.956686 9.79827L1.23108 12.2614C1.43608 14.1017 1.59708 15.5471 1.87054 16.6705C2.15084 17.822 2.56773 18.7206 3.34169 19.4116C4.11639 20.1031 5.06237 20.4168 6.24711 20.5673C7.40382 20.7143 8.87264 20.7142 10.744 20.7142H10.8394C12.7107 20.7142 14.1796 20.7143 15.3363 20.5673C16.521 20.4168 17.467 20.1031 18.2417 19.4116C19.0156 18.7206 19.4325 17.822 19.7128 16.6705C19.9863 15.5471 20.1473 14.1018 20.3523 12.2615L20.6267 9.79826C20.7247 8.91865 20.806 8.18917 20.7896 7.60781C20.7723 6.99662 20.6464 6.4352 20.2315 5.97287C19.8166 5.51054 19.2711 5.32372 18.664 5.23911C18.0865 5.15863 17.3506 5.15865 16.4633 5.15868L15.8728 5.15868C15.5453 2.65089 13.3953 0.714233 10.7917 0.714233ZM10.7917 2.04757C12.6554 2.04757 14.2048 3.39023 14.5205 5.15868H7.06285C7.37841 3.39041 8.92796 2.04757 10.7917 2.04757ZM2.34794 6.8621C2.46443 6.73229 2.64927 6.62304 3.10438 6.55961C3.57843 6.49355 4.22008 6.49201 5.16941 6.49201H16.414C17.3633 6.49201 18.0049 6.49355 18.479 6.55961C18.9341 6.62304 19.1189 6.73229 19.2354 6.8621C19.3519 6.99191 19.4404 7.18721 19.4533 7.64536C19.4668 8.1226 19.3975 8.75884 19.2926 9.69993L19.029 12.0667C18.8175 13.9648 18.6647 15.3252 18.4138 16.3559C18.1674 17.3682 17.8451 17.9762 17.3502 18.4181C16.856 18.8592 16.2116 19.112 15.1674 19.2446C14.1049 19.3796 12.7211 19.3809 10.7917 19.3809C8.86223 19.3809 7.4785 19.3796 6.41602 19.2446C5.37175 19.112 4.7274 18.8592 4.23322 18.4181C3.7383 17.9762 3.41601 17.3682 3.16959 16.3559C2.91869 15.3252 2.76586 13.9649 2.5544 12.0667L2.29075 9.69993C2.18591 8.75884 2.11658 8.1226 2.13007 7.64536C2.14301 7.18721 2.23146 6.99191 2.34794 6.8621Z" fill="#1E1E1E"/>
<path d="M16.1388 9.3809C16.1388 9.87182 15.7398 10.2698 15.2476 10.2698C14.7554 10.2698 14.3564 9.87182 14.3564 9.3809C14.3564 8.88998 14.7554 8.49201 15.2476 8.49201C15.7398 8.49201 16.1388 8.88998 16.1388 9.3809Z" fill="#1E1E1E"/>
<path d="M7.2269 9.3809C7.2269 9.87182 6.8279 10.2698 6.33571 10.2698C5.84351 10.2698 5.44451 9.87182 5.44451 9.3809C5.44451 8.88998 5.84351 8.49201 6.33571 8.49201C6.8279 8.49201 7.2269 8.88998 7.2269 9.3809Z" fill="#1E1E1E"/>
</svg>
