<svg width="20" height="20" viewBox="0 0 20 20" fill="none" xmlns="http://www.w3.org/2000/svg">
<path fill-rule="evenodd" clip-rule="evenodd" d="M12.2507 1.66663C15.0774 1.66663 16.699 3.06579 16.699 5.50329V17.6166C16.699 18.125 16.4374 18.5825 15.9974 18.8383C15.559 19.095 15.0307 19.1 14.5874 18.85L9.62071 16.0441L4.60821 18.8558C4.39154 18.9775 4.15404 19.0391 3.91571 19.0391C3.66988 19.0391 3.42404 18.9733 3.20071 18.8416C2.76154 18.5858 2.49988 18.1283 2.49988 17.6208V5.35079C2.49988 3.00913 4.12238 1.66663 6.95154 1.66663H12.2507ZM12.2507 2.91663H6.95154C4.82738 2.91663 3.74988 3.73496 3.74988 5.35079V17.6208C3.74988 17.6991 3.79488 17.7416 3.83238 17.7633C3.86988 17.7866 3.92904 17.8033 3.99738 17.765L9.31571 14.7816C9.50571 14.6758 9.73821 14.675 9.92904 14.7825L15.2015 17.7608C15.2707 17.8008 15.3299 17.7825 15.3674 17.76C15.4049 17.7375 15.449 17.695 15.449 17.6166L15.4487 5.40833C15.4424 4.6911 15.3037 2.91663 12.2507 2.91663ZM12.6164 7.27371C12.9614 7.27371 13.2414 7.55371 13.2414 7.89871C13.2414 8.24371 12.9614 8.52371 12.6164 8.52371H6.51804C6.17304 8.52371 5.89304 8.24371 5.89304 7.89871C5.89304 7.55371 6.17304 7.27371 6.51804 7.27371H12.6164Z" fill="#1E1E1E"/>
</svg>
