<svg width="20" height="20" viewBox="0 0 20 20" fill="none" xmlns="http://www.w3.org/2000/svg">
<path fill-rule="evenodd" clip-rule="evenodd" d="M10.5 6.06543C8.7248 6.06543 7.28571 7.48285 7.28571 9.23133C7.28571 10.9798 8.7248 12.3972 10.5 12.3972C12.2752 12.3972 13.7143 10.9798 13.7143 9.23133C13.7143 7.48285 12.2752 6.06543 10.5 6.06543ZM8.57143 9.23133C8.57143 8.18225 9.43488 7.33179 10.5 7.33179C11.5651 7.33179 12.4286 8.18225 12.4286 9.23133C12.4286 10.2804 11.5651 11.1309 10.5 11.1309C9.43488 11.1309 8.57143 10.2804 8.57143 9.23133Z" fill="#1E1E1E"/>
<path fill-rule="evenodd" clip-rule="evenodd" d="M10.5 1C6.31428 1 3 4.58192 3 8.90098C3 10.2861 3.69866 11.9172 4.57769 13.4479C5.47095 15.0034 6.61104 16.5561 7.6106 17.8116L7.64394 17.8535C8.13183 18.4663 8.54746 18.9884 8.95049 19.349C9.39021 19.7424 9.87509 20 10.5 20C11.1249 20 11.6098 19.7424 12.0495 19.349C12.4525 18.9884 12.8682 18.4663 13.3561 17.8534L13.3894 17.8116C14.389 16.5561 15.5291 15.0034 16.4223 13.4479C17.3013 11.9172 18 10.2861 18 8.90098C18 4.58192 14.6857 1 10.5 1ZM4.28571 8.90098C4.28571 5.19225 7.11153 2.26636 10.5 2.26636C13.8885 2.26636 16.7143 5.19225 16.7143 8.90098C16.7143 9.93643 16.166 11.322 15.3032 12.8244C14.4546 14.3021 13.3579 15.799 12.3777 17.0301C11.8471 17.6965 11.4978 18.1318 11.185 18.4116C10.8997 18.6669 10.7093 18.7336 10.5 18.7336C10.2907 18.7336 10.1003 18.6669 9.81499 18.4116C9.50218 18.1318 9.15287 17.6965 8.62233 17.0301C7.6421 15.799 6.54538 14.3021 5.69679 12.8244C4.83396 11.322 4.28571 9.93643 4.28571 8.90098Z" fill="#1E1E1E"/>
</svg>
