<svg width="64" height="158" viewBox="0 0 64 158" fill="none" xmlns="http://www.w3.org/2000/svg">
<path d="M32.0004 149.453C30.9881 146.969 30.5031 144.254 30.5031 141.586C30.5031 138.92 30.9881 136.204 32.0004 133.72C33.0118 136.204 33.4971 138.92 33.4971 141.586C33.4971 144.254 33.0118 146.969 32.0004 149.453ZM35.3454 141.586C35.3454 145.807 34.2288 150.018 32.0004 153.44C29.7715 150.018 28.6558 145.807 28.6558 141.586C28.6558 137.366 29.7699 133.155 32.0004 129.733C34.2294 133.155 35.3454 137.366 35.3454 141.586ZM38.116 141.586C38.116 134.898 36.0943 130.239 32.0004 125.173C27.8933 130.255 25.8845 134.958 25.8845 141.586C25.8845 148.214 27.8926 152.919 32.0004 158C36.0945 152.935 38.116 148.273 38.116 141.586ZM20.8432 114.226C18.2055 113.869 15.6308 112.934 13.3412 111.601C11.052 110.268 8.96264 108.486 7.33738 106.36C9.97529 106.717 12.5489 107.651 14.8383 108.985C17.1282 110.318 19.2174 112.1 20.8432 114.226ZM15.7628 107.371C19.3861 109.482 22.4437 112.562 24.2672 116.22C20.2141 116.456 16.0421 115.326 12.4176 113.215C8.79395 111.104 5.73744 108.025 3.91464 104.366C7.96717 104.13 12.1388 105.26 15.7628 107.371ZM17.1488 104.95C11.4067 101.605 6.39589 101.043 0 102.087C2.30903 108.215 5.34183 112.322 11.0324 115.636C16.7225 118.951 21.765 119.548 28.1809 118.5C25.8801 112.39 22.8883 108.293 17.1488 104.95ZM56.6624 135.089C54.0244 134.732 51.4502 133.797 49.1608 132.463C46.8718 131.131 44.7826 129.349 43.1563 127.222C45.7954 127.58 48.3691 128.514 50.6584 129.848C52.9476 131.181 55.037 132.962 56.6624 135.089ZM51.5815 128.233C55.206 130.344 58.2624 133.423 60.0866 137.083C56.0337 137.319 51.8608 136.188 48.2375 134.078C44.6134 131.967 41.5574 128.888 39.7341 125.229C43.7869 124.992 47.9577 126.123 51.5815 128.233ZM52.9678 125.812C47.2265 122.468 42.2157 121.905 35.8196 122.949C38.1283 129.077 41.1609 133.184 46.8514 136.498C52.5421 139.813 57.5845 140.41 64 139.361C61.6996 133.252 58.7076 129.155 52.9678 125.812ZM20.8432 127.223C19.2174 129.35 17.1282 131.131 14.8383 132.464C12.5489 133.797 9.97529 134.732 7.33738 135.089C8.96264 132.962 11.052 131.182 13.3412 129.848C15.6308 128.514 18.2055 127.58 20.8432 127.223ZM12.4176 128.234C16.0421 126.123 20.2141 124.992 24.2672 125.229C22.4437 128.887 19.3861 131.968 15.7628 134.078C12.1388 136.189 7.96717 137.32 3.91464 137.083C5.73744 133.423 8.79395 130.344 12.4176 128.234ZM11.0324 125.812C5.29032 129.157 2.3023 133.252 0 139.362C6.41501 140.41 11.4573 139.814 17.1488 136.499C22.8384 133.185 25.8728 129.078 28.1809 122.949C21.7858 121.905 16.7724 122.47 11.0324 125.812ZM56.6624 106.36C55.037 108.487 52.9476 110.268 50.6584 111.601C48.3691 112.935 45.7954 113.87 43.1563 114.227C44.7826 112.1 46.8718 110.319 49.1608 108.986C51.4502 107.652 54.0244 106.717 56.6624 106.36ZM48.2375 107.372C51.8608 105.26 56.0337 104.13 60.0866 104.366C58.2624 108.025 55.206 111.104 51.5815 113.216C47.9577 115.327 43.7869 116.457 39.7341 116.22C41.5574 112.561 44.6134 109.482 48.2375 107.372ZM46.8514 104.95C41.1096 108.295 38.1214 112.39 35.8196 118.5C42.2346 119.547 47.2769 118.951 52.9678 115.637C58.6576 112.323 61.692 108.216 64 102.087C57.6048 101.042 52.5913 101.607 46.8514 104.95ZM32.0004 24.2796C30.9881 21.7961 30.5031 19.0796 30.5031 16.4135C30.5031 13.7466 30.9881 11.0308 32.0004 8.54681C33.0118 11.0308 33.4971 13.7466 33.4971 16.4135C33.4971 19.0796 33.0118 21.7961 32.0004 24.2796ZM35.3454 16.4135C35.3454 20.6344 34.2288 24.846 32.0004 28.268C29.7715 24.846 28.6558 20.6344 28.6558 16.4135C28.6558 12.1922 29.7699 7.98254 32.0004 4.56053C34.2294 7.98254 35.3454 12.1922 35.3454 16.4135ZM38.116 16.4135C38.116 9.72533 36.0943 5.06676 32.0004 0C27.8933 5.08141 25.8845 9.78497 25.8845 16.4135C25.8845 23.0414 27.8926 27.7459 32.0004 32.8271C36.0945 27.7627 38.116 23.0996 38.116 16.4135ZM20.8432 30.7768C18.2055 30.42 15.6308 29.4858 13.3412 28.1517C11.052 26.8191 8.96264 25.0372 7.33738 22.9107C9.97529 23.2684 12.5489 24.2026 14.8383 25.5367C17.1282 26.8689 19.2174 28.6503 20.8432 30.7768ZM15.7628 23.9217C19.3861 26.0333 22.4437 29.1126 24.2672 32.7716C20.2141 33.0074 16.0421 31.8768 12.4176 29.766C8.79395 27.6562 5.73744 24.5767 3.91464 20.9179C7.96717 20.6808 12.1388 21.8109 15.7628 23.9217ZM17.1488 21.5009C11.4067 18.1568 6.39589 17.5931 0 18.6378C2.30903 24.7662 5.34183 28.8735 11.0324 32.1878C16.7225 35.5016 21.765 36.0989 28.1809 35.0511C25.8801 28.9412 22.8883 24.8444 17.1488 21.5009ZM56.6624 51.6399C54.0244 51.2828 51.4502 50.3482 49.1608 49.0145C46.8718 47.6808 44.7826 45.9002 43.1563 43.7738C45.7954 44.1304 48.3691 45.0652 50.6584 46.3985C52.9476 47.7324 55.037 49.513 56.6624 51.6399ZM51.5815 44.785C55.206 46.8949 58.2624 49.9743 60.0866 53.6329C56.0337 53.8704 51.8608 52.7399 48.2375 50.6284C44.6134 48.5177 41.5574 45.4389 39.7341 41.7796C43.7869 41.5434 47.9577 42.674 51.5815 44.785ZM52.9678 42.3631C47.2265 39.019 42.2157 38.4563 35.8196 39.5C38.1283 45.6289 41.1609 49.735 46.8514 53.0499C52.5421 56.3635 57.5845 56.9615 64 55.9133C61.6996 49.8037 58.7076 45.7064 52.9678 42.3631ZM20.8432 43.7738C19.2174 45.9002 17.1282 47.6813 14.8383 49.0149C12.5489 50.3482 9.97529 51.2833 7.33738 51.6399C8.96264 49.5136 11.052 47.7328 13.3412 46.3992C15.6308 45.0659 18.2055 44.1315 20.8432 43.7738ZM12.4176 44.7854C16.0421 42.6742 20.2141 41.5434 24.2672 41.7796C22.4437 45.4389 19.3861 48.5183 15.7628 50.6287C12.1388 52.7404 7.96717 53.8704 3.91464 53.6329C5.73744 49.9743 8.79395 46.8956 12.4176 44.7854ZM11.0324 42.364C5.29032 45.708 2.3023 49.8037 0 55.9135C6.41501 56.9613 11.4573 56.3644 17.1488 53.0504C22.8384 49.7361 25.8728 45.6293 28.1809 39.5C21.7858 38.4554 16.7724 39.0202 11.0324 42.364ZM56.6624 22.9112C55.037 25.0378 52.9476 26.8191 50.6584 28.1534C48.3691 29.486 45.7954 30.4202 43.1563 30.7772C44.7826 28.651 46.8718 26.87 49.1608 25.5372C51.4502 24.2035 54.0244 23.2684 56.6624 22.9112ZM48.2375 23.9228C51.8608 21.8109 56.0337 20.6808 60.0866 20.9179C58.2624 24.5765 55.206 27.6564 51.5815 29.7665C47.9577 31.877 43.7869 33.008 39.7341 32.7716C41.5574 29.1119 44.6134 26.0334 48.2375 23.9228ZM46.8514 21.5017C41.1096 24.846 38.1214 28.9412 35.8196 35.0511C42.2346 36.0982 47.2769 35.5031 52.9678 32.188C58.6576 28.874 61.692 24.7667 64 18.6384C57.6048 17.5929 52.5913 18.158 46.8514 21.5017ZM48.0363 94.3209C50.8 94.3209 53.0333 93.4656 54.7382 91.7903C56.2771 90.278 57.0635 88.4526 57.0635 86.3143C57.0635 84.207 56.2406 82.3396 54.6009 80.7538C52.9135 79.1217 50.8344 78.3082 48.3951 78.3082H45.9005V77.1543H47.6322C49.8315 77.1543 51.7373 76.3373 53.3123 74.7087C54.7674 73.2043 55.5004 71.532 55.5004 69.686C55.5004 68.0321 54.8612 66.6206 53.625 65.4406C52.1809 64.0627 50.1933 63.3559 47.6322 63.3559H37.3002C35.2721 63.3661 34.2991 63.702 33.6647 65.4133L22.389 95.7976H18.4308L6.72778 64.4867H6.17889V91.1675C6.17889 92.3053 6.47254 93.1276 7.07081 93.5984C7.69104 94.0872 8.86246 94.3209 10.5552 94.3209V95.4748H1.00999V94.3209C2.4432 94.3209 3.46257 94.0868 4.05164 93.5984C4.6193 93.1279 4.89772 92.3044 4.89772 91.1598V65.9017C4.89772 64.973 4.59965 64.3092 4.0058 63.9178C3.41177 63.5264 2.41258 63.333 1.00999 63.333V62.2025H12.0278L22.8007 91.1832L33.4897 62.2025H50.6622C54.0176 62.2025 56.6993 62.9232 58.6599 64.3714C60.5672 65.7792 61.5187 67.6321 61.5187 69.9242C61.5187 71.6704 60.9904 73.1259 59.9561 74.3008C58.7681 75.6515 56.8987 76.6925 54.3674 77.4159C57.3487 77.985 59.5705 79.0706 61.0233 80.6693C62.3335 82.1121 62.9904 83.9919 62.9904 86.3066C62.9904 88.8374 62.0046 90.9309 60.0859 92.6292C57.9618 94.5088 55.1147 95.4748 51.5082 95.4748H29.2062V94.2952L30.0375 94.2827C31.6463 94.2827 32.8698 94.1275 33.4713 92.494L39.4347 76.3057V91.1503C39.4347 93.9054 40.8664 94.2952 43.363 94.2952L48.0363 94.3209Z" fill="#1E1E1E"/>
</svg>
