<svg width="23" height="24" viewBox="0 0 23 24" fill="none" xmlns="http://www.w3.org/2000/svg">
<path d="M14.5206 9.87344C14.8135 9.58055 14.8135 9.10567 14.5206 8.81278C14.2277 8.51989 13.7528 8.51989 13.4599 8.81278L7.80307 14.4696C7.51018 14.7625 7.51018 15.2374 7.80307 15.5303C8.09597 15.8232 8.57084 15.8232 8.86374 15.5303L14.5206 9.87344Z" fill="#1E1E1E"/>
<path fill-rule="evenodd" clip-rule="evenodd" d="M14.8978 2.75658C13.8744 -0.829342 8.79243 -0.829342 7.76905 2.75658C7.44224 3.90174 6.26572 4.581 5.11058 4.29145C1.49339 3.38476 -1.04759 7.78586 1.54622 10.4651C2.37456 11.3207 2.37456 12.6792 1.54622 13.5348C-1.04759 16.2141 1.49339 20.6152 5.11058 19.7085C6.26572 19.4189 7.44224 20.0982 7.76905 21.2433C8.79243 24.8293 13.8744 24.8293 14.8978 21.2433C15.2246 20.0982 16.4011 19.4189 17.5562 19.7085C21.1734 20.6152 23.7144 16.2141 21.1206 13.5348C20.2923 12.6792 20.2923 11.3207 21.1206 10.4651C23.7144 7.78586 21.1734 3.38476 17.5562 4.29145C16.4011 4.581 15.2246 3.90174 14.8978 2.75658ZM9.21146 3.16823C9.8207 1.03344 12.8461 1.03344 13.4553 3.16823C14.0043 5.09182 15.9806 6.23281 17.9209 5.74644C20.0743 5.20666 21.587 7.82674 20.0429 9.42175C18.6515 10.859 18.6515 13.141 20.0429 14.5782C21.587 16.1732 20.0743 18.7933 17.9209 18.2535C15.9806 17.7671 14.0043 18.9081 13.4553 20.8317C12.8461 22.9665 9.8207 22.9665 9.21146 20.8317C8.66249 18.9081 6.68623 17.7671 4.74587 18.2535C2.59247 18.7933 1.07977 16.1732 2.62392 14.5782C4.01532 13.141 4.01532 10.859 2.62392 9.42175C1.07977 7.82674 2.59247 5.20666 4.74587 5.74644C6.68623 6.23281 8.66249 5.09182 9.21146 3.16823Z" fill="#1E1E1E"/>
<path d="M7.33344 9C7.33344 9.55228 7.78115 10 8.33344 10C8.88572 10 9.33344 9.55228 9.33344 9C9.33344 8.44772 8.88572 8 8.33344 8C7.78115 8 7.33344 8.44772 7.33344 9Z" fill="#1E1E1E"/>
<path d="M13.3334 15C13.3334 15.5523 13.7812 16 14.3334 16C14.8857 16 15.3334 15.5523 15.3334 15C15.3334 14.4477 14.8857 14 14.3334 14C13.7812 14 13.3334 14.4477 13.3334 15Z" fill="#1E1E1E"/>
</svg>
