<svg width="30" height="35" viewBox="0 0 30 35" fill="none" xmlns="http://www.w3.org/2000/svg">
<path d="M17.0817 17.1764C18.4032 16.6331 19.8485 16.3727 21.2669 16.3727C22.6858 16.3727 24.1309 16.6331 25.4525 17.1764C24.1309 17.7192 22.6858 17.9797 21.2669 17.9797C19.8484 17.9797 18.403 17.7192 17.0817 17.1764ZM21.2669 18.9718C19.0212 18.9718 16.7802 18.3725 14.9596 17.1764C16.7804 15.9801 19.0212 15.3812 21.2669 15.3812C23.5129 15.3812 25.7527 15.9791 27.5735 17.1764C25.7527 18.3728 23.513 18.9718 21.2669 18.9718ZM21.2669 20.4589C24.8255 20.4589 27.3041 19.3737 30 17.1764C27.2963 14.9719 24.7938 13.8937 21.2669 13.8937C17.7404 13.8937 15.2374 14.9716 12.5339 17.1764C15.2284 19.3739 17.7095 20.4589 21.2669 20.4589ZM13.6247 11.1877C13.8145 9.77186 14.3115 8.38993 15.0214 7.16101C15.7304 5.93223 16.6786 4.81082 17.81 3.93848C17.6198 5.35443 17.1227 6.73574 16.4128 7.96467C15.704 9.19375 14.7561 10.3152 13.6247 11.1878V11.1877ZM17.272 8.46078C16.1486 10.4057 14.5102 12.0467 12.5633 13.0255C12.4378 10.85 13.0393 8.61069 14.1624 6.6652C15.2849 4.72017 16.9235 3.07959 18.8702 2.10127C18.9964 4.27649 18.3951 6.5156 17.272 8.46078ZM18.56 9.20473C20.3394 6.12267 20.6393 3.43307 20.0833 0.000154699C16.8226 1.2396 14.6373 2.86734 12.8739 5.92187C11.1108 8.97609 10.7929 11.6827 11.3504 15.1264C14.6013 13.8915 16.7811 12.2856 18.56 9.20489V9.20473ZM2.52411 30.4138C2.71408 28.9978 3.21143 27.616 3.92104 26.3873C4.63064 25.1587 5.57802 24.0372 6.70948 23.1643C6.51982 24.5809 6.02231 25.9623 5.31302 27.1911C4.60326 28.4199 3.65588 29.5413 2.52426 30.4138H2.52411ZM6.17144 27.6866C5.04879 29.6321 3.41038 31.2725 1.4638 32.2518C1.33741 30.0764 1.93888 27.8365 3.06246 25.8918C4.18542 23.9464 5.82352 22.3062 7.77056 21.3275C7.89633 23.5029 7.29471 25.7416 6.17144 27.6867V27.6866ZM7.46008 28.4307C9.23943 25.3491 9.53877 22.6595 8.9834 19.2263C5.7225 20.4654 3.53769 22.0933 1.77397 25.1477C0.0108719 28.2022 -0.307344 30.9087 0.2505 34.3523C3.50118 33.1176 5.6812 31.5115 7.46008 28.4307ZM6.70948 11.1877C5.57817 10.315 4.63049 9.19359 3.92088 7.96451C3.21143 6.73574 2.71392 5.35428 2.52411 3.93832C3.65542 4.81067 4.60295 5.93223 5.31255 7.16085C6.022 8.38978 6.5192 9.7717 6.70948 11.1875V11.1877ZM6.17129 6.6652C7.29455 8.61069 7.89618 10.85 7.77056 13.0255C5.82352 12.0467 4.18511 10.4055 3.0623 8.46078C1.93873 6.5156 1.33757 4.27649 1.46396 2.10127C3.41053 3.07959 5.04864 4.72032 6.17144 6.6652H6.17129ZM7.45962 5.92171C5.68043 2.83965 3.50119 1.23589 0.250345 0C-0.307188 3.44328 0.0104084 6.14974 1.77366 9.20458C3.53708 12.2585 5.72219 13.8872 8.9834 15.1261C9.53923 11.6935 9.23865 9.00254 7.45962 5.92156V5.92171ZM17.8097 30.4138C16.6783 29.5413 15.7304 28.4199 15.0205 27.1911C14.3115 25.9623 13.8143 24.5809 13.6245 23.1643C14.7558 24.0372 15.7034 25.1587 16.4125 26.3873C17.1221 27.616 17.6196 28.9978 17.8097 30.4138ZM17.2715 25.8916C18.3953 27.8365 18.9964 30.0762 18.8704 32.2516C16.9238 31.2725 15.2851 29.6319 14.1624 27.6864C13.0394 25.7414 12.4377 23.5026 12.5636 21.3272C14.5108 22.3059 16.1487 23.9463 17.2717 25.8915L17.2715 25.8916ZM18.5597 25.1477C16.7804 22.0658 14.6014 20.4618 11.3504 19.2263C10.7934 22.6696 11.11 25.376 12.8738 28.4307C14.637 31.4848 16.8225 33.1134 20.083 34.3523C20.6393 30.9196 20.3386 28.2287 18.5596 25.1477H18.5597Z" fill="#1E1E1E"/>
</svg>
