<svg width="25" height="24" viewBox="0 0 25 24" fill="none" xmlns="http://www.w3.org/2000/svg">
<path fill-rule="evenodd" clip-rule="evenodd" d="M10.686 2.15393C8.12661 2.15393 6.05183 4.22871 6.05183 6.78808C6.05183 9.34745 8.12661 11.4222 10.686 11.4222C13.2453 11.4222 15.3201 9.34745 15.3201 6.78808C15.3201 4.22871 13.2453 2.15393 10.686 2.15393ZM7.51524 6.78808C7.51524 5.03693 8.93483 3.61735 10.686 3.61735C12.4371 3.61735 13.8567 5.03693 13.8567 6.78808C13.8567 8.53922 12.4371 9.95881 10.686 9.95881C8.93483 9.95881 7.51524 8.53922 7.51524 6.78808Z" fill="#1E1E1E"/>
<path fill-rule="evenodd" clip-rule="evenodd" d="M7.75915 12.8856C5.19978 12.8856 3.125 14.9604 3.125 17.5198C3.125 20.0792 5.19978 22.1539 7.75915 22.1539H13.6128C16.1722 22.1539 18.247 20.0792 18.247 17.5198C18.247 14.9604 16.1722 12.8856 13.6128 12.8856H7.75915ZM4.58841 17.5198C4.58841 15.7686 6.008 14.3491 7.75915 14.3491H13.6128C15.364 14.3491 16.7835 15.7686 16.7835 17.5198C16.7835 19.2709 15.364 20.6905 13.6128 20.6905H7.75915C6.008 20.6905 4.58841 19.2709 4.58841 17.5198Z" fill="#1E1E1E"/>
</svg>
